HIERARCHY
ROOT Hips
{
  OFFSET -35.4901 99.2528 17.4586
  CHANNELS 6 Xposition Yposition Zposition Zrotation Xrotation Yrotation
  JOINT LeftUpLeg
  {
    OFFSET 8.64259 1.95398 -2.38835
    CHANNELS 3 Zrotation Xrotation Yrotation
    JOINT LeftLeg
    {
      OFFSET 43.7702 0 0
      CHANNELS 3 Zrotation Xrotation Yrotation
      JOINT LeftFoot
      {
        OFFSET 40.6238 0 0
        CHANNELS 3 Zrotation Xrotation Yrotation
        JOINT LeftToeBase
        {
          OFFSET 12.7242 0 0
          CHANNELS 3 Zrotation Xrotation Yrotation
          End Site
          {
            OFFSET 0 0 0
          }
        }
      }
    }
  }
  JOINT RightUpLeg
  {
    OFFSET -8.2249 1.95398 -2.59336
    CHANNELS 3 Zrotation Xrotation Yrotation
    JOINT RightLeg
    {
      OFFSET 43.5653 0 0
      CHANNELS 3 Zrotation Xrotation Yrotation
      JOINT RightFoot
      {
        OFFSET 40.6238 0 0
        CHANNELS 3 Zrotation Xrotation Yrotation
        JOINT RightToeBase
        {
          OFFSET 12.7242 0 0
          CHANNELS 3 Zrotation Xrotation Yrotation
          End Site
          {
            OFFSET 0 0 0
          }
        }
      }
    }
  }
  JOINT Spine
  {
    OFFSET 0.165834 0.87714 6.61349
    CHANNELS 3 Zrotation Xrotation Yrotation
    JOINT Spine1
    {
      OFFSET 7.38963 1.71661e-005 0
      CHANNELS 3 Zrotation Xrotation Yrotation
      JOINT Spine2
      {
        OFFSET 11.9445 1.14441e-005 0
        CHANNELS 3 Zrotation Xrotation Yrotation
        JOINT Spine3
        {
          OFFSET 14.7254 4.19617e-005 0
          CHANNELS 3 Zrotation Xrotation Yrotation
          JOINT Spine4
          {
            OFFSET 10.9679 0 0
            CHANNELS 3 Zrotation Xrotation Yrotation
            JOINT RightShoulder
            {
              OFFSET 2.46616 -1.6653 3.69651
              CHANNELS 3 Zrotation Xrotation Yrotation
              JOINT RightArm
              {
                OFFSET 13.0012 0 0
                CHANNELS 3 Zrotation Xrotation Yrotation
                JOINT RightForeArm
                {
                  OFFSET 28.7848 1.52588e-005 0
                  CHANNELS 3 Zrotation Xrotation Yrotation
                  JOINT RightHand
                  {
                    OFFSET 26.5688 1.52588e-005 0
                    CHANNELS 3 Zrotation Xrotation Yrotation
                    End Site
                    {
                      OFFSET 0 0 0
                    }
                  }
                }
              }
            }
            JOINT LeftShoulder
            {
              OFFSET 2.38034 -1.29275 -3.7523
              CHANNELS 3 Zrotation Xrotation Yrotation
              JOINT LeftArm
              {
                OFFSET 16.3182 6.10351e-005 0
                CHANNELS 3 Zrotation Xrotation Yrotation
                JOINT LeftForeArm
                {
                  OFFSET 27.0901 0 0
                  CHANNELS 3 Zrotation Xrotation Yrotation
                  JOINT LeftHand
                  {
                    OFFSET 24.5451 1.52588e-005 0
                    CHANNELS 3 Zrotation Xrotation Yrotation
                    End Site
                    {
                      OFFSET 0 0 0
                    }
                  }
                }
              }
            }
            JOINT Neck
            {
              OFFSET 5.0226 -0.0266342 0
              CHANNELS 3 Zrotation Xrotation Yrotation
              JOINT Head
              {
                OFFSET 6.69364 2.86102e-005 0
                CHANNELS 3 Zrotation Xrotation Yrotation
                End Site
                {
                  OFFSET 0 0 0
                }
              }
            }
          }
        }
      }
    }
  }
}
MOTION
Frames:	7
Frame Time:	0.0416667
-206.027 92.2641 189.831 -96.7465 -43.2218 -95.3702 -178.234 25.0792 91.5997 -20.0557 8.54685 -1.30505 63.7668 2.32857 -0.421507 10.5467 -2.7468 4.66128 174.223 -3.27075 88.1305 -31.676 -21.4825 -4.55328 88.3373 -13.992 -1.92198 25.7128 -2.61085 6.93082 1.20083 7.5975 -90.1411 11.6863 2.32231 -0.524195 0.0172886 2.297 -0.625948 -22.5345 2.3724 0.198384 -2.52189 2.37243 0.198395 91.5302 -25.5993 -105.311 34.6504 -7.78724 -8.92102 -0.747238 -29.2023 -20.3442 -25.3385 0.0920122 -9.06465 -79.6749 -58.627 94.5941 -15.6331 5.14723 -3.98631 3.83563 -2.21669 -18.2522 0.22524 -0.116961 -5.53541 -1.71655 -1.14005 5.02871 -12.407 -0.915126 -9.30485 
-202.159 93.6984 184.027 -99.7146 -48.5469 -98.9411 -176.034 26.181 89.5177 -34.1214 -1.58045 -2.66413 67.3661 3.98314 -1.02524 9.74704 -1.73201 3.45848 173.328 -0.350703 88.6795 -31.7848 -18.0523 -3.37402 84.0806 -11.6284 -2.24967 24.1344 -2.22497 5.94871 0.274243 7.89459 -90.3146 11.0857 0.400012 -0.664113 -0.585324 0.370401 -0.681082 -23.1202 0.581098 -0.513187 -3.1075 0.581113 -0.513184 91.4201 -26.5929 -105.162 34.8553 -4.84036 -4.13982 -0.434275 -25.3434 -20.1018 -27.1901 0.125848 -8.36655 -83.3206 -52.758 89.0539 -16.8492 5.4408 -13.5964 8.58928 6.87477 -22.6833 1.59199 -0.182103 -7.16016 -4.13973 0.514804 2.3381 -10.4139 0.333367 -0.965855 
-198.944 94.6408 179.699 -100.592 -50.6012 -100.074 -173.535 25.6616 89.6315 -55.6556 6.8707 -0.313944 67.0398 3.89091 0.839832 8.36609 -0.46957 2.01311 172.639 2.61143 88.6961 -30.6492 -17.9004 -2.64615 79.6953 -9.25939 -2.10829 23.6869 -2.21006 5.9057 -0.258959 7.89698 -90.5386 11.0754 -0.765291 -0.996499 -0.595676 -0.808386 -0.961854 -23.1288 -0.430434 -1.1804 -3.11613 -0.430422 -1.18041 91.8514 -28.1609 -103.696 35.7393 -2.12309 1.32281 0.780048 -23.063 -18.0831 -25.4631 -0.164171 -6.79833 -84.0343 -47.9826 87.4627 -17.3262 6.56982 -23.454 10.3734 8.71671 -25.961 0.972122 -0.25773 -9.98691 -6.68131 1.74832 1.41542 -11.3027 1.40864 2.76796 
-195.905 94.8045 176.257 -101.067 -49.6038 -99.6362 -172.612 16.8176 91.8619 -64.8873 10.6972 2.58883 65.0014 3.06709 1.37575 10.2133 -0.124955 1.51438 173.042 5.5853 89.4972 -30.838 -18.7277 -2.3316 76.9438 -8.06296 -2.28125 22.8077 -2.45668 6.47639 -0.453651 7.86613 -90.7785 11.132 -1.26449 -1.42744 -0.539008 -1.32611 -1.37042 -23.0702 -0.777118 -1.74141 -3.05758 -0.777113 -1.74141 93.0359 -28.9119 -101.019 38.1562 -2.16172 4.33749 4.75616 -19.338 -11.8335 -25.6943 -0.125854 -6.50411 -84.6024 -45.818 86.3017 -20.8066 3.03949 -30.6355 12.7286 10.0088 -26.0584 1.36321 -0.341113 -12.0545 -8.11792 2.75423 1.38763 -11.7177 2.25596 4.83594 
-192.85 94.7931 173.326 -101.66 -46.9953 -99.0687 -171.826 2.75515 95.0866 -59.0483 18.3676 3.86737 63.5322 2.41155 -0.508768 13.5645 -0.0925169 1.27915 173.515 8.20889 90.0351 -31.3668 -21.1554 -2.16481 73.8552 -6.70385 -2.0309 22.0407 -2.45978 6.46582 -0.837983 7.73306 -90.9298 11.3908 -2.1011 -1.64034 -0.279388 -2.17124 -1.54628 -22.8142 -1.5111 -2.19587 -2.80155 -1.51108 -2.19586 91.8056 -28.9922 -103.501 40.9274 -2.10302 8.00079 6.2392 -20.037 -8.12026 -24.8041 -0.304209 -5.76333 -83.9723 -46.039 87.3276 -26.9159 -0.953263 -29.8488 15.2272 10.4478 -27.3563 1.25124 -0.295136 -10.8314 -10.5062 4.74529 3.65431 -11.8298 4.15664 5.20078 
-188.863 94.1913 169.701 -101.004 -45.3464 -98.555 -170.889 -7.36751 95.1608 -47.1832 22.9454 2.70631 68.2346 4.21774 -1.50431 17.4269 -0.641849 1.83576 175.28 13.3727 90.5166 -33.6154 -22.0823 -2.94439 70.5441 -5.32975 -2.25648 22.4365 -2.17675 5.82358 -1.16324 7.64835 -90.9569 11.5566 -2.76187 -1.62293 -0.112311 -2.83062 -1.49976 -22.6549 -2.14656 -2.37799 -2.64222 -2.14653 -2.37798 92.4879 -29.1757 -102.054 43.0728 -2.18812 8.44253 5.97791 -20.6391 -9.75112 -22.844 0.0974066 -8.16668 -84.1695 -47.9225 87.2484 -25.6255 2.17253 -26.5698 10.7978 4.37201 -27.4058 -0.584915 -0.214164 -12.4441 -10.9764 6.24057 5.01757 -12.414 5.48295 6.44532 
-182.927 93.3565 164.461 -101.234 -46.4673 -99.4299 -170.225 -8.8641 95.2418 -39.3007 22.6976 0.267501 72.9661 6.1635 -1.08415 33.3148 0.861546 -2.6429 175.897 18.5069 89.8264 -32.7476 -20.9868 -3.2416 65.1377 -2.76579 -1.2364 22.2126 -2.04678 5.53015 -1.52406 7.79371 -90.8211 11.2678 -3.41504 -1.29596 -0.399131 -3.46877 -1.14426 -22.9563 -2.86767 -2.26293 -2.94365 -2.86766 -2.26293 92.7058 -30.2417 -101.285 44.8934 -1.56199 6.64583 2.85192 -19.9741 -15.0588 -23.5197 0.365808 -9.37947 -84.7277 -47.8272 86.3688 -23.787 6.51947 -25.5931 9.29425 5.99608 -23.9749 -1.57487 -0.145652 -12.9728 -9.82018 6.8387 4.26996 -12.564 6.00533 7.11147 
